<?xml version="1.0" encoding="UTF-8"?><svg id="logo_nuevo01" xmlns="http://www.w3.org/2000/svg" viewBox="0 0 318 104"><g><g><path d="M24.5,30.96c-.12,.08-.25,.15-.37,.23,.12-.2,.23-.39,.34-.59v.07c.02,.09,.03,.19,.03,.29Z"/><path d="M55.71,11.44c-.11,.07-.23,.14-.34,.21-.12-.07-.23-.14-.35-.21h.69Z"/><path d="M87.45,31.19c-.11-.07-.23-.14-.34-.21v-.38c.11,.2,.23,.39,.34,.59Z"/><path d="M24.47,30.67v-.07c-.11,.2-.22,.39-.34,.59,.12-.08,.25-.15,.37-.23,0-.1-.01-.2-.03-.29ZM55.02,11.44c.12,.07,.23,.14,.35,.21,.11-.07,.23-.14,.34-.21h-.69Zm32.09,19.16v.38c.11,.07,.23,.14,.34,.21-.11-.2-.23-.39-.34-.59Zm-62.64,.07v-.07c-.11,.2-.22,.39-.34,.59,.12-.08,.25-.15,.37-.23,0-.1-.01-.2-.03-.29ZM55.02,11.44c.12,.07,.23,.14,.35,.21,.11-.07,.23-.14,.34-.21h-.69Zm32.09,19.16v.38c.11,.07,.23,.14,.34,.21-.11-.2-.23-.39-.34-.59Z"/></g><path d="M100.32,68.03c-.23-.1-5.72-2.36-10.43,1.19-.3,.22-.6,.43-.91,.62V30.91c0-.41-.07-1.01-.71-1.41-.35-.22-.71-.44-1.07-.66L55.97,9.83c-.37-.23-.86-.22-1.22,0L25.92,27.86l-2.33,1.46c-.39,.23-.92,.55-.98,1.25-.03,.31-.02,.62-.01,.93v38.59c-5.16-2.99-8.25-3.57-12.44-2.43l.13,.49,.13,.48s2.64-.59,7.74,2.84c5.34,3.6,8.25,5.34,11.83,5.67,3.27,.3,4.94,.3,12.21-1.74-.5,.67-.89,1.5-.67,2.31l.16,.59,.55-.28c.53-.27,1.98-.91,3.07-1.03,0,1.15,.08,2.99,.46,3.67,.07,.24,.34,1.18,.8,2.89,.54,2.01,1.07,3.38,2.31,4.92,.63,.77,.65,1.78,.67,2.75,.01,.61,.02,1.24,.18,1.8,.04,.15,.08,.3,.12,.46,.29,1.2,.68,2.83,3.98,2.83,.21,0,.43,0,.66-.02,.9-.05,1.63-.05,2.2-.05,2.15,0,2.82-.09,3.82-2.33,.59-1.31,.63-2.14,.67-2.95,.05-.88,.1-1.7,.9-3.23,.5-.96,.87-1.6,1.16-2.1,.61-1.06,.89-1.55,1.28-3.14,.14-.59,.29-1.06,.42-1.48,.34-1.08,.6-1.9,.39-3.27,.71,.13,1.93,.39,3.35,.96l.47,.19,.18-.48c.03-.08,.29-.82-.14-1.71-.15-.34-.38-.65-.68-.93,1.64,.19,3.95,.5,6.34,.93,4.58,.83,10.48,.38,13.35-2.5,2.61-2.61,9.22-5.29,11.91-5.21l2.66,.08-2.45-1.04ZM55.71,11.44c-.11,.07-.23,.14-.34,.21-.12-.07-.23-.14-.35-.21h.69ZM24.13,31.19c.12-.2,.23-.39,.34-.59v.07c.02,.09,.03,.19,.03,.29-.12,.08-.25,.15-.37,.23Zm62.48,34.96c0,.55-.01,1.09-.02,1.64-.01,1.02-.03,2.07,.02,3.16-3.29,1.09-7.24,.78-11.8-.96-2.04-.78-4.78-1.46-7.52-1.87,2.03-1.99,3.46-4.5,4.02-7.22,1.33-6.56-1.14-11.31-3.82-14.25-2.67-2.95,.61-10.11,.61-10.11-3.15,.2-5.42,4.62-5.42,4.62-5.94-6.85-2.01-10.97-2.01-10.97-13.83,5.9-10.84,20.79-10.72,21.39-3.87-4.08-2.33-9.62-2.33-9.62-8.76,6.69-7.69,15.19-7.69,15.19,.31,4.78,1.83,8.09,3.82,10.38-1.83,.3-5.17,1.08-9.65,3.08-.04,.03-4.58,2.18-9.14,.63,.01-.03,.01-.05,.01-.08V32.26c0-.16,.01-.33,.02-.49,.01-.18,.02-.36,.02-.54L55.37,12.24l31.24,19.02v34.89Zm.5-35.17v-.38c.11,.2,.23,.39,.34,.59-.11-.07-.23-.14-.34-.21Z"/></g><g><path d="M139.11,23.77v4.1h-.35v-.42c0-.62-.18-1.12-.55-1.5-.36-.39-.86-.59-1.5-.61h-5.09v16.13c0,.47,.18,.87,.54,1.21,.37,.34,.79,.51,1.28,.51h.36v.32h-7.33v-.32h.38c.49,0,.91-.17,1.27-.51,.35-.34,.54-.74,.56-1.21V25.34h-5.09c-.64,.02-1.14,.22-1.51,.61-.36,.38-.54,.88-.54,1.5v.42h-.35v-4.1c.19,.06,.48,.14,.88,.22,.39,.09,.83,.16,1.31,.21,.48,.06,.92,.08,1.33,.08h10.88c.4,0,.85-.02,1.33-.08,.48-.05,.91-.12,1.31-.21,.39-.08,.69-.16,.88-.22Z"/><path d="M159.81,26.36v15.11c.02,.47,.2,.87,.55,1.21,.34,.34,.76,.51,1.28,.51h.35v.32h-7.27v-.32h.36c.51,0,.93-.17,1.28-.51,.34-.34,.52-.74,.54-1.21v-6.92h-10.69v6.92c.02,.47,.21,.87,.56,1.21,.35,.34,.77,.51,1.27,.51h.38v.32h-7.3v-.32h.39c.49,0,.91-.17,1.26-.51,.35-.34,.54-.74,.56-1.21v-15.11c-.02-.49-.21-.9-.56-1.23-.35-.33-.77-.5-1.26-.5h-.39v-.32h7.3v.32h-.38c-.5,0-.92,.17-1.27,.5-.35,.33-.54,.74-.56,1.23v7.11h10.69v-7.11c-.02-.49-.2-.9-.54-1.23-.35-.33-.77-.5-1.28-.5h-.36v-.32h7.3v.32h-.38c-.52,0-.94,.17-1.28,.5-.35,.33-.53,.74-.55,1.23Z"/><path d="M180.26,38.49l-1.57,5.02h-13.69v-.32h.44c.52,0,.94-.17,1.27-.51,.33-.34,.5-.74,.53-1.21v-15.14c-.03-.49-.2-.9-.53-1.22-.33-.32-.75-.48-1.27-.48h-.44v-.32h9.92c.66,0,1.35-.05,2.08-.17,.72-.12,1.21-.23,1.47-.34v4.13h-.32v-.42c0-.61-.18-1.12-.55-1.52-.36-.39-.86-.59-1.5-.59h-5.95v8h4.83c.56,0,.98-.17,1.26-.51,.29-.34,.44-.75,.44-1.22v-.35h.35v5.25h-.35v-.35c0-.49-.15-.9-.44-1.23-.28-.33-.7-.5-1.26-.5h-4.83v7.94h4.51c1,0,1.84-.17,2.51-.5,.67-.33,1.23-.79,1.68-1.39,.45-.6,.81-1.28,1.09-2.05h.32Z"/><path d="M202.2,21.66h.01v0Z"/><path d="M203.71,37.75c-.04,1.88-.67,3.39-1.88,4.52-1.22,1.13-2.86,1.69-4.93,1.69-.66,0-1.37-.06-2.13-.19s-1.47-.32-2.13-.59c-.66-.27-1.19-.61-1.6-1.04-.1-.39-.15-.86-.14-1.43,.01-.56,.07-1.14,.19-1.74,.12-.6,.27-1.13,.47-1.6h.28c-.1,1.09,.05,2.06,.47,2.91,.41,.86,1.02,1.51,1.82,1.97,.8,.46,1.72,.67,2.77,.62,1.26-.04,2.3-.43,3.12-1.16,.82-.74,1.23-1.7,1.23-2.9,0-.62-.14-1.18-.41-1.7-.28-.51-.71-.97-1.28-1.37l-5.96-5.06c-.81-.59-1.38-1.3-1.73-2.11-.34-.81-.49-1.62-.44-2.43,.04-.96,.3-1.86,.77-2.71,.46-.84,1.14-1.51,2.03-2.01,.88-.5,1.95-.75,3.21-.75,.37,0,.78,.02,1.25,.06,.47,.04,.95,.1,1.43,.18,.18,.03,.36,.05,.52,.08h1.57v.67s-.13,3.52-.13,3.52h-.29c0-1.05-.37-1.88-1.11-2.5-.75-.62-1.69-.93-2.82-.93-1.2,0-2.16,.35-2.9,1.04-.73,.7-1.1,1.51-1.1,2.45-.02,.47,.1,.97,.37,1.49,.26,.52,.67,1.01,1.23,1.46l6.24,5.21c.75,.58,1.27,1.25,1.58,2,.31,.76,.46,1.54,.43,2.35Z"/><path d="M227.97,29.8c-.55-1.22-1.33-2.28-2.32-3.17-.99-.88-2.15-1.56-3.49-2.04-1.33-.48-2.79-.72-4.37-.72s-2.99,.24-4.31,.72c-1.33,.48-2.49,1.16-3.49,2.04-1.01,.89-1.78,1.95-2.32,3.17-.55,1.23-.82,2.6-.82,4.11s.27,2.89,.82,4.12c.54,1.22,1.31,2.28,2.32,3.16,1,.89,2.16,1.57,3.49,2.05,1.32,.48,2.76,.72,4.31,.72s3.04-.24,4.37-.72c1.34-.48,2.5-1.16,3.49-2.05,.99-.88,1.77-1.94,2.32-3.16,.56-1.23,.83-2.6,.83-4.12s-.27-2.88-.83-4.11Zm-3.41,8.82c-.67,1.34-1.59,2.39-2.77,3.15-1.17,.76-2.5,1.14-4,1.14s-2.76-.38-3.93-1.14-2.1-1.81-2.78-3.15c-.69-1.35-1.03-2.91-1.03-4.71s.34-3.38,1.03-4.72c.68-1.33,1.61-2.37,2.78-3.13,1.17-.76,2.48-1.14,3.93-1.14s2.83,.38,4,1.14c1.18,.76,2.1,1.8,2.77,3.13,.68,1.34,1.01,2.91,1.01,4.72s-.33,3.36-1.01,4.71Z"/><path d="M251.43,24.31v.32h-.45c-.41,0-.76,.13-1.06,.39-.3,.25-.45,.59-.45,.99v10.69c0,2.24-.7,4.01-2.12,5.31s-3.38,1.95-5.88,1.95c-2.66,0-4.73-.64-6.19-1.93-1.46-1.29-2.19-3.06-2.19-5.3v-10.72c-.02-.4-.18-.74-.46-.99-.29-.26-.65-.39-1.08-.39h-.44v-.32h6.84v.32h-.48c-.4,0-.75,.13-1.05,.39-.3,.25-.45,.59-.45,.99v10.4c0,2.03,.51,3.62,1.52,4.78,1.01,1.17,2.4,1.75,4.14,1.75,1.92,0,3.43-.55,4.52-1.65,1.09-1.1,1.63-2.61,1.63-4.53v-10.75c0-.4-.15-.74-.45-.99-.3-.26-.65-.39-1.05-.39h-.49v-.32h5.64Z"/><path d="M276.32,24.31v.32h-.54c-.47,0-.88,.16-1.23,.48-.35,.32-.53,.72-.53,1.19v13.66c0,.71,.02,1.36,.06,1.97,.05,.61,.12,1.29,.23,2.03h-.29l-16-14.8,.03,12.37c0,.47,.18,.86,.53,1.18,.35,.32,.76,.48,1.23,.48h.55v.32h-7.04v-.32h.54c.49,0,.91-.16,1.25-.48,.34-.32,.51-.71,.51-1.18v-13.79c0-1.09-.1-2.39-.29-3.91h.29l16,14.73v-12.26c-.02-.47-.2-.87-.54-1.19-.35-.32-.76-.48-1.25-.48h-.55v-.32h7.04Z"/><path d="M298.77,28.78c-.84-1.44-2.05-2.55-3.61-3.31-1.57-.77-3.45-1.16-5.62-1.16h-10.72v.32h.38c.49,0,.92,.17,1.27,.5,.35,.33,.54,.74,.56,1.23v15.07c0,.47-.18,.88-.53,1.24-.35,.35-.77,.52-1.26,.52h-.42v.32h10.72c2.17,0,4.05-.38,5.62-1.16,1.56-.78,2.77-1.89,3.61-3.32,.84-1.42,1.27-3.13,1.27-5.12s-.43-3.69-1.27-5.13Zm-3.89,11.39c-1.32,1.53-3.14,2.29-5.47,2.29h-5.44V25.37h5.44c2.33,0,4.15,.76,5.47,2.29,1.33,1.52,1.99,3.61,1.99,6.25s-.66,4.74-1.99,6.26Z"/></g><g><path d="M150.68,66.2c-.73-1.63-1.76-3.03-3.07-4.2-1.32-1.17-2.86-2.08-4.63-2.72-1.76-.63-3.69-.95-5.79-.95s-3.97,.32-5.72,.95c-1.76,.64-3.3,1.55-4.63,2.72-1.33,1.17-2.35,2.57-3.08,4.2-.72,1.63-1.08,3.44-1.08,5.45s.36,3.83,1.08,5.45c.73,1.63,1.75,3.03,3.08,4.2,1.33,1.18,2.87,2.08,4.63,2.72,1.75,.63,3.66,.95,5.72,.95s4.03-.32,5.79-.95c1.77-.64,3.31-1.54,4.63-2.72,1.31-1.17,2.34-2.57,3.07-4.2,.74-1.62,1.11-3.44,1.11-5.45s-.37-3.82-1.11-5.45Zm-4.51,11.69c-.89,1.78-2.12,3.17-3.67,4.18-1.56,1-3.33,1.5-5.31,1.5s-3.66-.5-5.22-1.5c-1.55-1.01-2.78-2.4-3.69-4.18-.9-1.78-1.35-3.86-1.35-6.24s.45-4.49,1.35-6.26c.91-1.77,2.14-3.15,3.69-4.16,1.56-1,3.3-1.5,5.22-1.5s3.75,.5,5.31,1.5c1.55,1.01,2.78,2.39,3.67,4.16s1.33,3.86,1.33,6.26-.44,4.46-1.33,6.24Z"/><path d="M173.13,58.24v5.48h-.47v-.56c0-.82-.24-1.49-.72-2.01-.48-.52-1.15-.78-1.99-.78h-8.02v10.6h6.49c.76,0,1.33-.22,1.7-.68,.36-.45,.55-.99,.55-1.61v-.47h.46v6.96h-.46v-.47c0-.65-.19-1.19-.55-1.63-.37-.44-.94-.66-1.7-.66h-6.49v9.25c.03,.63,.27,1.16,.72,1.62,.45,.45,1.03,.67,1.74,.67h.55v.43h-9.84v-.43h.59c.68,0,1.25-.22,1.7-.67,.45-.46,.69-.99,.72-1.62v-20.06c-.03-.65-.27-1.19-.72-1.62-.45-.42-1.02-.63-1.7-.63h-.59v-.43h13.28c.56,0,1.16-.03,1.8-.1,.64-.07,1.22-.17,1.76-.28,.54-.11,.93-.21,1.19-.3Z"/><path d="M219.54,70.17v.42h-.63c-1.47,0-2.18,.64-2.12,1.91v7c-.66,.85-1.57,1.7-2.76,2.54-1.19,.85-2.63,1.55-4.31,2.11-1.68,.55-3.63,.82-5.83,.82-3.06-.03-5.75-.68-8.08-1.95-2.34-1.27-4.16-3.06-5.46-5.37-1.3-2.3-1.95-5.01-1.95-8.12s.65-5.83,1.95-8.15,3.12-4.11,5.46-5.39c2.33-1.27,5.05-1.9,8.16-1.9,1.56,0,3,.12,4.33,.36,1.33,.24,2.53,.56,3.61,.97,1.07,.41,2.02,.87,2.84,1.38l.59,6.41h-.38c-.45-1.76-1.17-3.19-2.16-4.31s-2.2-1.96-3.63-2.52c-1.43-.57-3.02-.85-4.77-.85-2.35,0-4.39,.58-6.13,1.74s-3.09,2.79-4.03,4.9c-.95,2.11-1.43,4.59-1.43,7.44s.47,5.21,1.4,7.3c.94,2.09,2.25,3.71,3.93,4.86,1.68,1.14,3.67,1.73,5.96,1.76,1.16,0,2.28-.16,3.37-.47s2.1-.75,3.04-1.31c.93-.57,1.71-1.26,2.33-2.08l.04-7.17c0-1.27-.72-1.91-2.16-1.91h-.68v-.42h9.5Z"/><path d="M248.01,83.95v.43h-2.03c-1.56,0-2.85-.17-3.86-.51-1.02-.34-1.87-.81-2.55-1.4-.68-.59-1.27-1.24-1.78-1.95-.17-.2-.44-.58-.81-1.15-.37-.56-.76-1.16-1.17-1.8-.41-.64-.78-1.22-1.12-1.76-.34-.54-.55-.89-.64-1.06-.51-.79-1.08-1.45-1.72-1.97-.63-.53-1.29-.79-1.97-.79v-.42c.74,.02,1.39,.02,1.95,0,.74-.03,1.47-.11,2.19-.24,.72-.13,1.39-.46,2.01-1.02,.63-.55,1.11-1.42,1.45-2.61,.08-.25,.15-.57,.21-.95s.07-.8,.04-1.25c-.06-.88-.23-1.63-.51-2.25-.28-.62-.67-1.14-1.16-1.55-.5-.41-1.05-.72-1.66-.93-.61-.21-1.26-.33-1.97-.36-1.05-.03-1.97-.04-2.78-.02-.65,.01-1.07,0-1.25-.02v21.29c0,.65,.23,1.2,.7,1.64,.46,.44,1.02,.65,1.67,.65h.51l.04,.43h-9.71v-.43h.59c.65,0,1.2-.22,1.66-.67,.38-.39,.61-.82,.68-1.32v-20.67c-.07-.52-.3-.95-.68-1.31-.46-.42-1.01-.63-1.66-.63h-.59v-.43h11.45c1.28,0,2.45,.14,3.53,.43,1.07,.28,2,.71,2.8,1.29,.79,.58,1.4,1.3,1.84,2.16,.44,.87,.66,1.88,.66,3.04,0,1.1-.25,2.15-.76,3.16-.51,1-1.25,1.84-2.21,2.52-.96,.68-2.09,1.11-3.4,1.28,.6,.19,1.24,.65,1.91,1.35,.68,.71,1.23,1.39,1.66,2.04,.06,.06,.25,.33,.59,.83,.34,.49,.77,1.09,1.3,1.78,.52,.69,1.05,1.38,1.59,2.06,.59,.68,1.12,1.24,1.59,1.69,.47,.46,.97,.8,1.51,1.04,.53,.24,1.15,.36,1.86,.36Z"/><path d="M259.43,83.95l.04,.43h-10.44v-.43h.59c.74,0,1.37-.22,1.89-.67,.53-.46,.8-.99,.83-1.62v-20.02c-.03-.65-.3-1.2-.83-1.64-.52-.43-1.16-.65-1.93-.65h-.55v-.43h10.44l-.04,.43h-.51c-.77,0-1.41,.22-1.93,.65-.53,.44-.8,.99-.83,1.64v20.02c.03,.63,.3,1.16,.83,1.62,.52,.45,1.16,.67,1.93,.67h.51Z"/><path d="M283.65,77.72l-2.08,6.66h-18.16v-.43h.6c.68,0,1.23-.22,1.67-.67,.44-.46,.67-.99,.7-1.62v-20.02c-.03-.65-.27-1.2-.74-1.64-.47-.43-1.04-.65-1.72-.65h-.51v-.43h9.8v.43h-.51c-.67,0-1.25,.22-1.73,.65-.49,.44-.73,.99-.73,1.64v21.3h5.99c1.33,0,2.44-.22,3.33-.66,.89-.44,1.63-1.05,2.22-1.85,.6-.79,1.08-1.69,1.45-2.71h.42Z"/><path d="M305.76,77.72l-2.08,6.66h-18.16v-.43h.59c.68,0,1.24-.22,1.68-.67,.44-.46,.67-.99,.7-1.62v-20.02c-.03-.65-.28-1.2-.75-1.64-.46-.43-1.03-.65-1.71-.65h-.51v-.43h9.8v.43h-.51c-.68,0-1.26,.22-1.74,.65-.48,.44-.72,.99-.72,1.64v21.3h5.98c1.33,0,2.44-.22,3.33-.66s1.63-1.05,2.23-1.85c.59-.79,1.07-1.69,1.44-2.71h.43Z"/></g></svg>