<svg width="160" height="52" viewBox="0 0 160 52" fill="none" xmlns="http://www.w3.org/2000/svg">
<path d="M12.3275 15.4788C12.2671 15.5188 12.2017 15.5538 12.1414 15.5938C12.2017 15.4938 12.2571 15.3988 12.3124 15.2988V15.3338C12.3225 15.3788 12.3275 15.4288 12.3275 15.4788Z" fill="white"/>
<path d="M28.03 5.71875C27.9747 5.75375 27.9143 5.78875 27.859 5.82375C27.7986 5.78875 27.7432 5.75375 27.6829 5.71875H28.03Z" fill="white"/>
<path d="M44.0002 15.5938C43.9448 15.5588 43.8844 15.5238 43.8291 15.4888V15.2988C43.8844 15.3988 43.9448 15.4938 44.0002 15.5938Z" fill="white"/>
<path d="M12.3124 15.3337V15.2987C12.2571 15.3988 12.2017 15.4937 12.1414 15.5938C12.2017 15.5538 12.2671 15.5188 12.3275 15.4788C12.3275 15.4288 12.3225 15.3787 12.3124 15.3337ZM27.6835 5.71875C27.7439 5.75375 27.7992 5.78875 27.8596 5.82375C27.9149 5.78875 27.9753 5.75375 28.0307 5.71875H27.6835ZM43.8294 15.2987V15.4888C43.8848 15.5238 43.9451 15.5588 44.0005 15.5938C43.9451 15.4937 43.8848 15.3988 43.8294 15.2987ZM12.3124 15.3337V15.2987C12.2571 15.3988 12.2017 15.4937 12.1414 15.5938C12.2017 15.5538 12.2671 15.5188 12.3275 15.4788C12.3275 15.4288 12.3225 15.3787 12.3124 15.3337ZM27.6835 5.71875C27.7439 5.75375 27.7992 5.78875 27.8596 5.82375C27.9149 5.78875 27.9753 5.75375 28.0307 5.71875H27.6835ZM43.8294 15.2987V15.4888C43.8848 15.5238 43.9451 15.5588 44.0005 15.5938C43.9451 15.4937 43.8848 15.3988 43.8294 15.2987Z" fill="white"/>
<path d="M50.4753 34.0145C50.3596 33.9645 47.5973 32.8345 45.2275 34.6095C45.0766 34.7195 44.9257 34.8245 44.7697 34.9195V15.4545C44.7697 15.2495 44.7345 14.9495 44.4124 14.7495C44.2363 14.6395 44.0552 14.5295 43.8741 14.4195L28.1609 4.91446C27.9747 4.79946 27.7282 4.80446 27.547 4.91446L13.0414 13.9295L11.869 14.6595C11.6728 14.7745 11.4062 14.9345 11.376 15.2845C11.3609 15.4395 11.3659 15.5945 11.3709 15.7495V35.0445C8.77471 33.5495 7.21999 33.2595 5.11182 33.8295L5.17723 34.0745L5.24263 34.3145C5.24263 34.3145 6.57094 34.0195 9.13697 35.7345C11.8238 37.5345 13.2879 38.4045 15.0892 38.5695C16.7345 38.7195 17.5747 38.7195 21.2326 37.6995C20.981 38.0345 20.7848 38.4495 20.8955 38.8545L20.976 39.1495L21.2527 39.0095C21.5194 38.8745 22.2489 38.5545 22.7973 38.4945C22.7973 39.0695 22.8376 39.9895 23.0288 40.3295C23.064 40.4495 23.1999 40.9195 23.4313 41.7745C23.703 42.7795 23.9697 43.4645 24.5936 44.2345C24.9106 44.6195 24.9206 45.1245 24.9307 45.6095C24.9357 45.9145 24.9407 46.2295 25.0212 46.5095C25.0414 46.5845 25.0615 46.6595 25.0816 46.7395C25.2275 47.3395 25.4238 48.1545 27.0841 48.1545C27.1898 48.1545 27.3005 48.1545 27.4162 48.1445C27.869 48.1195 28.2363 48.1195 28.5231 48.1195C29.6049 48.1195 29.942 48.0745 30.4451 46.9545C30.742 46.2995 30.7621 45.8845 30.7823 45.4795C30.8074 45.0395 30.8326 44.6295 31.2351 43.8645C31.4867 43.3845 31.6728 43.0645 31.8187 42.8145C32.1257 42.2845 32.2665 42.0395 32.4628 41.2445C32.5332 40.9495 32.6087 40.7145 32.6741 40.5045C32.8451 39.9645 32.976 39.5545 32.8703 38.8695C33.2275 38.9345 33.8414 39.0645 34.5558 39.3495L34.7923 39.4445L34.8829 39.2045C34.898 39.1645 35.0288 38.7945 34.8124 38.3495C34.737 38.1795 34.6213 38.0245 34.4703 37.8845C35.2955 37.9795 36.4577 38.1345 37.6602 38.3495C39.9646 38.7645 42.9332 38.5395 44.3772 37.0995C45.6904 35.7945 49.0162 34.4545 50.3697 34.4945L51.708 34.5345L50.4753 34.0145ZM28.0301 5.71946C27.9747 5.75446 27.9143 5.78946 27.859 5.82446C27.7986 5.78946 27.7433 5.75446 27.6829 5.71946H28.0301ZM12.1407 15.5945C12.2011 15.4945 12.2565 15.3995 12.3118 15.2995V15.3345C12.3219 15.3795 12.3269 15.4295 12.3269 15.4795C12.2665 15.5195 12.2011 15.5545 12.1407 15.5945ZM43.5772 33.0745C43.5772 33.3495 43.5722 33.6195 43.5672 33.8945C43.5621 34.4045 43.5521 34.9295 43.5772 35.4745C41.9219 36.0195 39.9345 35.8645 37.6401 34.9945C36.6137 34.6045 35.2351 34.2645 33.8565 34.0595C34.8779 33.0645 35.5973 31.8095 35.8791 30.4495C36.5483 27.1695 35.3055 24.7945 33.9571 23.3245C32.6137 21.8495 34.264 18.2695 34.264 18.2695C32.6791 18.3695 31.537 20.5795 31.537 20.5795C28.5483 17.1545 30.5257 15.0945 30.5257 15.0945C23.5672 18.0445 25.0716 25.4895 25.1319 25.7895C23.1848 23.7495 23.9596 20.9795 23.9596 20.9795C19.5521 24.3245 20.0904 28.5745 20.0904 28.5745C20.2464 30.9645 21.0112 32.6195 22.0124 33.7645C21.0917 33.9145 19.4112 34.3045 17.1571 35.3045C17.137 35.3195 14.8527 36.3945 12.5584 35.6195C12.5634 35.6045 12.5634 35.5945 12.5634 35.5795V16.1295C12.5634 16.0495 12.5684 15.9645 12.5735 15.8845C12.5785 15.7945 12.5835 15.7045 12.5835 15.6145L27.859 6.11946L43.5772 15.6295V33.0745ZM43.8288 15.4895V15.2995C43.8841 15.3995 43.9445 15.4945 43.9999 15.5945C43.9445 15.5595 43.8841 15.5245 43.8288 15.4895Z" fill="white"/>
<path d="M69.9919 11.8848V13.9348H69.8158V13.7248C69.8158 13.4148 69.7253 13.1648 69.5391 12.9748C69.358 12.7798 69.1064 12.6798 68.7844 12.6698H66.2234V20.7348C66.2234 20.9698 66.314 21.1698 66.4951 21.3398C66.6812 21.5098 66.8926 21.5948 67.1391 21.5948H67.3202V21.7548H63.6322V21.5948H63.8234C64.0699 21.5948 64.2812 21.5098 64.4624 21.3398C64.6385 21.1698 64.7341 20.9698 64.7441 20.7348V12.6698H62.1831C61.8611 12.6798 61.6095 12.7798 61.4234 12.9748C61.2423 13.1648 61.1517 13.4148 61.1517 13.7248V13.9348H60.9756V11.8848C61.0712 11.9148 61.2171 11.9548 61.4184 11.9948C61.6146 12.0398 61.836 12.0748 62.0775 12.0998C62.319 12.1298 62.5404 12.1398 62.7467 12.1398H68.2209C68.4221 12.1398 68.6485 12.1298 68.89 12.0998C69.1316 12.0748 69.3479 12.0398 69.5492 11.9948C69.7454 11.9548 69.8963 11.9148 69.9919 11.8848Z" fill="white"/>
<path d="M80.4069 13.1793V20.7343C80.417 20.9693 80.5076 21.1693 80.6837 21.3393C80.8547 21.5093 81.0661 21.5943 81.3277 21.5943H81.5038V21.7543H77.8459V21.5943H78.0271C78.2837 21.5943 78.495 21.5093 78.6711 21.3393C78.8422 21.1693 78.9327 20.9693 78.9428 20.7343V17.2743H73.5642V20.7343C73.5742 20.9693 73.6698 21.1693 73.8459 21.3393C74.022 21.5093 74.2334 21.5943 74.4849 21.5943H74.6761V21.7543H71.0032V21.5943H71.1994C71.4459 21.5943 71.6573 21.5093 71.8334 21.3393C72.0095 21.1693 72.1051 20.9693 72.1151 20.7343V13.1793C72.1051 12.9343 72.0095 12.7293 71.8334 12.5643C71.6573 12.3993 71.4459 12.3143 71.1994 12.3143H71.0032V12.1543H74.6761V12.3143H74.4849C74.2334 12.3143 74.022 12.3993 73.8459 12.5643C73.6698 12.7293 73.5742 12.9343 73.5642 13.1793V16.7343H78.9428V13.1793C78.9327 12.9343 78.8422 12.7293 78.6711 12.5643C78.495 12.3993 78.2837 12.3143 78.0271 12.3143H77.8459V12.1543H81.5189V12.3143H81.3277C81.0661 12.3143 80.8547 12.3993 80.6837 12.5643C80.5076 12.7293 80.417 12.9343 80.4069 13.1793Z" fill="white"/>
<path d="M90.6963 19.2434L89.9064 21.7534H83.0183V21.5934H83.2397C83.5013 21.5934 83.7127 21.5084 83.8787 21.3384C84.0447 21.1684 84.1303 20.9684 84.1454 20.7334V13.1634C84.1303 12.9184 84.0447 12.7134 83.8787 12.5534C83.7127 12.3934 83.5013 12.3134 83.2397 12.3134H83.0183V12.1534H88.0095C88.3416 12.1534 88.6888 12.1284 89.056 12.0684C89.4183 12.0084 89.6649 11.9534 89.7957 11.8984V13.9634H89.6347V13.7534C89.6347 13.4484 89.5441 13.1934 89.3579 12.9934C89.1768 12.7984 88.9252 12.6984 88.6032 12.6984H85.6095V16.6984H88.0397C88.3215 16.6984 88.5328 16.6134 88.6737 16.4434C88.8196 16.2734 88.895 16.0684 88.895 15.8334V15.6584H89.0711V18.2834H88.895V18.1084C88.895 17.8634 88.8196 17.6584 88.6737 17.4934C88.5328 17.3284 88.3215 17.2434 88.0397 17.2434H85.6095V21.2134H87.8787C88.3818 21.2134 88.8045 21.1284 89.1416 20.9634C89.4787 20.7984 89.7605 20.5684 89.9869 20.2684C90.2133 19.9684 90.3944 19.6284 90.5353 19.2434H90.6963Z" fill="white"/>
<path d="M102.495 18.874C102.475 19.814 102.158 20.569 101.549 21.134C100.935 21.699 100.11 21.979 99.0688 21.979C98.7367 21.979 98.3795 21.949 97.9971 21.884C97.6147 21.819 97.2575 21.724 96.9254 21.589C96.5933 21.454 96.3267 21.284 96.1204 21.069C96.0701 20.874 96.0449 20.639 96.0499 20.354C96.055 20.074 96.0852 19.784 96.1455 19.484C96.2059 19.184 96.2814 18.919 96.382 18.684H96.5229C96.4726 19.229 96.5481 19.714 96.7594 20.139C96.9657 20.569 97.2726 20.894 97.6751 21.124C98.0776 21.354 98.5405 21.459 99.0688 21.434C99.7028 21.414 100.226 21.219 100.639 20.854C101.051 20.484 101.257 20.004 101.257 19.404C101.257 19.094 101.187 18.814 101.051 18.554C100.91 18.299 100.694 18.069 100.407 17.869L97.4084 15.339C97.0009 15.044 96.7141 14.689 96.538 14.284C96.3669 13.879 96.2915 13.474 96.3166 13.069C96.3367 12.589 96.4676 12.139 96.704 11.714C96.9355 11.294 97.2776 10.959 97.7254 10.709C98.1682 10.459 98.7066 10.334 99.3405 10.334C99.5267 10.334 99.733 10.344 99.9694 10.364C100.206 10.384 100.447 10.414 100.689 10.454C100.78 10.469 100.87 10.479 100.951 10.494H101.741V10.829L101.675 12.589H101.529C101.529 12.064 101.343 11.649 100.971 11.339C100.593 11.029 100.12 10.874 99.5518 10.874C98.9481 10.874 98.465 11.049 98.0927 11.394C97.7254 11.744 97.5393 12.149 97.5393 12.619C97.5292 12.854 97.5896 13.104 97.7254 13.364C97.8562 13.624 98.0625 13.869 98.3443 14.094L101.484 16.699C101.861 16.989 102.123 17.324 102.279 17.699C102.435 18.079 102.51 18.469 102.495 18.874Z" fill="white"/>
<path d="M114.701 14.8988C114.425 14.2888 114.032 13.7588 113.534 13.3138C113.036 12.8738 112.452 12.5338 111.778 12.2938C111.109 12.0538 110.374 11.9338 109.579 11.9338C108.784 11.9338 108.075 12.0538 107.411 12.2938C106.741 12.5338 106.158 12.8738 105.655 13.3138C105.147 13.7588 104.759 14.2888 104.487 14.8988C104.211 15.5138 104.075 16.1988 104.075 16.9538C104.075 17.7088 104.211 18.3988 104.487 19.0138C104.759 19.6238 105.147 20.1538 105.655 20.5938C106.158 21.0388 106.741 21.3788 107.411 21.6188C108.075 21.8588 108.799 21.9788 109.579 21.9788C110.359 21.9788 111.109 21.8588 111.778 21.6188C112.452 21.3788 113.036 21.0388 113.534 20.5938C114.032 20.1538 114.425 19.6238 114.701 19.0138C114.983 18.3988 115.119 17.7138 115.119 16.9538C115.119 16.1938 114.983 15.5138 114.701 14.8988ZM112.986 19.3088C112.648 19.9788 112.186 20.5038 111.592 20.8838C111.003 21.2638 110.334 21.4538 109.579 21.4538C108.825 21.4538 108.191 21.2638 107.602 20.8838C107.013 20.5038 106.545 19.9788 106.203 19.3088C105.856 18.6338 105.685 17.8538 105.685 16.9538C105.685 16.0538 105.856 15.2638 106.203 14.5938C106.545 13.9288 107.013 13.4088 107.602 13.0288C108.191 12.6488 108.85 12.4588 109.579 12.4588C110.309 12.4588 111.003 12.6488 111.592 13.0288C112.186 13.4088 112.648 13.9288 112.986 14.5938C113.328 15.2638 113.494 16.0488 113.494 16.9538C113.494 17.8588 113.328 18.6338 112.986 19.3088Z" fill="white"/>
<path d="M126.505 12.1543V12.3143H126.278C126.072 12.3143 125.896 12.3793 125.745 12.5093C125.594 12.6343 125.519 12.8043 125.519 13.0043V18.3493C125.519 19.4693 125.167 20.3543 124.452 21.0043C123.738 21.6543 122.751 21.9793 121.494 21.9793C120.155 21.9793 119.114 21.6593 118.379 21.0143C117.645 20.3693 117.277 19.4843 117.277 18.3643V13.0043C117.267 12.8043 117.187 12.6343 117.046 12.5093C116.9 12.3793 116.719 12.3143 116.502 12.3143H116.281V12.1543H119.723V12.3143H119.481C119.28 12.3143 119.104 12.3793 118.953 12.5093C118.802 12.6343 118.726 12.8043 118.726 13.0043V18.2043C118.726 19.2193 118.983 20.0143 119.491 20.5943C119.999 21.1793 120.699 21.4693 121.574 21.4693C122.54 21.4693 123.3 21.1943 123.848 20.6443C124.397 20.0943 124.668 19.3393 124.668 18.3793V13.0043C124.668 12.8043 124.593 12.6343 124.442 12.5093C124.291 12.3793 124.115 12.3143 123.914 12.3143H123.667V12.1543H126.505Z" fill="white"/>
<path d="M139.029 12.1541V12.3141H138.757C138.52 12.3141 138.314 12.3941 138.138 12.5541C137.962 12.7141 137.871 12.9141 137.871 13.1491V19.9791C137.871 20.3341 137.881 20.6591 137.902 20.9641C137.927 21.2691 137.962 21.6091 138.017 21.9791H137.871L129.821 14.5791L129.836 20.7641C129.836 20.9991 129.927 21.1941 130.103 21.3541C130.279 21.5141 130.485 21.5941 130.722 21.5941H130.998V21.7541H127.456V21.5941H127.728C127.975 21.5941 128.186 21.5141 128.357 21.3541C128.528 21.1941 128.614 20.9991 128.614 20.7641V13.8691C128.614 13.3241 128.563 12.6741 128.468 11.9141H128.614L136.664 19.2791V13.1491C136.654 12.9141 136.563 12.7141 136.392 12.5541C136.216 12.3941 136.01 12.3141 135.763 12.3141H135.486V12.1541H139.029Z" fill="white"/>
<path d="M150.324 14.3893C149.902 13.6693 149.293 13.1143 148.508 12.7343C147.718 12.3493 146.772 12.1543 145.68 12.1543H140.287V12.3143H140.478C140.724 12.3143 140.941 12.3993 141.117 12.5643C141.293 12.7293 141.389 12.9343 141.399 13.1793V20.7143C141.399 20.9493 141.308 21.1543 141.132 21.3343C140.956 21.5093 140.744 21.5943 140.498 21.5943H140.287V21.7543H145.68C146.772 21.7543 147.718 21.5643 148.508 21.1743C149.293 20.7843 149.902 20.2293 150.324 19.5143C150.747 18.8043 150.963 17.9493 150.963 16.9543C150.963 15.9593 150.747 15.1093 150.324 14.3893ZM148.367 20.0843C147.703 20.8493 146.787 21.2293 145.615 21.2293H142.878V12.6843H145.615C146.787 12.6843 147.703 13.0643 148.367 13.8293C149.036 14.5893 149.368 15.6343 149.368 16.9543C149.368 18.2743 149.036 19.3243 148.367 20.0843Z" fill="white"/>
<path d="M75.8141 33.0991C75.4468 32.2841 74.9286 31.5841 74.2695 30.9991C73.6053 30.4141 72.8305 29.9591 71.9399 29.6391C71.0544 29.3241 70.0833 29.1641 69.0267 29.1641C67.9701 29.1641 67.0292 29.3241 66.1487 29.6391C65.2632 29.9591 64.4883 30.4141 63.8192 30.9991C63.15 31.5841 62.6368 32.2841 62.2695 33.0991C61.9072 33.9141 61.7261 34.8191 61.7261 35.8241C61.7261 36.8291 61.9072 37.7391 62.2695 38.5491C62.6368 39.3641 63.15 40.0641 63.8192 40.6491C64.4883 41.2391 65.2632 41.6891 66.1487 42.0091C67.0292 42.3241 67.9902 42.4841 69.0267 42.4841C70.0632 42.4841 71.0544 42.3241 71.9399 42.0091C72.8305 41.6891 73.6053 41.2391 74.2695 40.6491C74.9286 40.0641 75.4468 39.3641 75.8141 38.5491C76.1864 37.7391 76.3726 36.8291 76.3726 35.8241C76.3726 34.8191 76.1864 33.9141 75.8141 33.0991ZM73.5449 38.9441C73.0971 39.8341 72.4783 40.5291 71.6984 41.0341C70.9135 41.5341 70.0229 41.7841 69.0267 41.7841C68.0305 41.7841 67.1852 41.5341 66.4003 41.0341C65.6204 40.5291 65.0015 39.8341 64.5437 38.9441C64.0909 38.0541 63.8644 37.0141 63.8644 35.8241C63.8644 34.6341 64.0909 33.5791 64.5437 32.6941C65.0015 31.8091 65.6204 31.1191 66.4003 30.6141C67.1852 30.1141 68.0607 29.8641 69.0267 29.8641C69.9927 29.8641 70.9135 30.1141 71.6984 30.6141C72.4783 31.1191 73.0971 31.8091 73.5449 32.6941C73.9927 33.5791 74.2141 34.6241 74.2141 35.8241C74.2141 37.0241 73.9927 38.0541 73.5449 38.9441Z" fill="white"/>
<path d="M87.1098 29.1211V31.8611H86.8733V31.5811C86.8733 31.1711 86.7525 30.8361 86.511 30.5761C86.2695 30.3161 85.9324 30.1861 85.5098 30.1861H81.4746V35.4861H84.74C85.1224 35.4861 85.4091 35.3761 85.5953 35.1461C85.7764 34.9211 85.872 34.6511 85.872 34.3411V34.1061H86.1035V37.5861H85.872V37.3511C85.872 37.0261 85.7764 36.7561 85.5953 36.5361C85.4091 36.3161 85.1224 36.2061 84.74 36.2061H81.4746V40.8311C81.4897 41.1461 81.6104 41.4111 81.8368 41.6411C82.0632 41.8661 82.3551 41.9761 82.7123 41.9761H82.989V42.1911H78.0381V41.9761H78.3349C78.6771 41.9761 78.9639 41.8661 79.1903 41.6411C79.4167 41.4111 79.5375 41.1461 79.5525 40.8311V30.8011C79.5375 30.4761 79.4167 30.2061 79.1903 29.9911C78.9639 29.7811 78.6771 29.6761 78.3349 29.6761H78.0381V29.4611H84.7198C85.0016 29.4611 85.3035 29.4461 85.6255 29.4111C85.9475 29.3761 86.2393 29.3261 86.511 29.2711C86.7827 29.2161 86.979 29.1661 87.1098 29.1211Z" fill="white"/>
<path d="M110.461 35.0849V35.2949H110.144C109.405 35.2949 109.047 35.6149 109.077 36.2499V39.7499C108.745 40.1749 108.288 40.5999 107.689 41.0199C107.09 41.4449 106.366 41.7949 105.52 42.0749C104.675 42.3499 103.694 42.4849 102.587 42.4849C101.047 42.4699 99.6938 42.1449 98.5215 41.5099C97.3442 40.8749 96.4284 39.9799 95.7744 38.8249C95.1203 37.6749 94.7932 36.3199 94.7932 34.7649C94.7932 33.2099 95.1203 31.8499 95.7744 30.6899C96.4284 29.5299 97.3442 28.6349 98.5215 27.9949C99.6938 27.3599 101.062 27.0449 102.627 27.0449C103.412 27.0449 104.137 27.1049 104.806 27.2249C105.475 27.3449 106.079 27.5049 106.622 27.7099C107.161 27.9149 107.638 28.1449 108.051 28.3999L108.348 31.6049H108.157C107.93 30.7249 107.568 30.0099 107.07 29.4499C106.572 28.8899 105.963 28.4699 105.244 28.1899C104.524 27.9049 103.724 27.7649 102.844 27.7649C101.661 27.7649 100.635 28.0549 99.7593 28.6349C98.8838 29.2149 98.2045 30.0299 97.7316 31.0849C97.2536 32.1399 97.0121 33.3799 97.0121 34.8049C97.0121 36.2299 97.2486 37.4099 97.7165 38.4549C98.1894 39.4999 98.8486 40.3099 99.6938 40.8849C100.539 41.4549 101.54 41.7499 102.693 41.7649C103.276 41.7649 103.84 41.6849 104.388 41.5299C104.937 41.3749 105.445 41.1549 105.918 40.8749C106.386 40.5899 106.778 40.2449 107.09 39.8349L107.11 36.2499C107.11 35.6149 106.748 35.2949 106.023 35.2949H105.681V35.0849H110.461Z" fill="white"/>
<path d="M124.785 41.9759V42.1909H123.764C122.979 42.1909 122.33 42.1059 121.822 41.9359C121.308 41.7659 120.881 41.5309 120.539 41.2359C120.196 40.9409 119.9 40.6159 119.643 40.2609C119.557 40.1609 119.422 39.9709 119.235 39.6859C119.049 39.4059 118.853 39.1059 118.647 38.7859C118.441 38.4659 118.254 38.1759 118.083 37.9059C117.912 37.6359 117.807 37.4609 117.761 37.3759C117.505 36.9809 117.218 36.6509 116.896 36.3909C116.579 36.1259 116.247 35.9959 115.905 35.9959V35.7859C116.277 35.7959 116.604 35.7959 116.886 35.7859C117.258 35.7709 117.625 35.7309 117.988 35.6659C118.35 35.6009 118.687 35.4359 118.999 35.1559C119.316 34.8809 119.557 34.4459 119.729 33.8509C119.769 33.7259 119.804 33.5659 119.834 33.3759C119.864 33.1859 119.869 32.9759 119.854 32.7509C119.824 32.3109 119.739 31.9359 119.598 31.6259C119.457 31.3159 119.261 31.0559 119.014 30.8509C118.763 30.6459 118.486 30.4909 118.179 30.3859C117.872 30.2809 117.545 30.2209 117.188 30.2059C116.659 30.1909 116.196 30.1859 115.789 30.1959C115.462 30.2009 115.251 30.1959 115.16 30.1859V40.8309C115.16 41.1559 115.276 41.4309 115.512 41.6509C115.744 41.8709 116.025 41.9759 116.352 41.9759H116.609L116.629 42.1909H111.744V41.9759H112.041C112.368 41.9759 112.644 41.8659 112.876 41.6409C113.067 41.4459 113.183 41.2309 113.218 40.9809V30.6459C113.183 30.3859 113.067 30.1709 112.876 29.9909C112.644 29.7809 112.368 29.6759 112.041 29.6759H111.744V29.4609H117.505C118.149 29.4609 118.737 29.5309 119.281 29.6759C119.819 29.8159 120.287 30.0309 120.69 30.3209C121.087 30.6109 121.394 30.9709 121.615 31.4009C121.837 31.8359 121.947 32.3409 121.947 32.9209C121.947 33.4709 121.822 33.9959 121.565 34.5009C121.308 35.0009 120.936 35.4209 120.453 35.7609C119.97 36.1009 119.402 36.3159 118.742 36.4009C119.044 36.4959 119.366 36.7259 119.703 37.0759C120.046 37.4309 120.322 37.7709 120.539 38.0959C120.569 38.1259 120.664 38.2609 120.835 38.5109C121.007 38.7559 121.223 39.0559 121.49 39.4009C121.751 39.7459 122.018 40.0909 122.29 40.4309C122.586 40.7709 122.853 41.0509 123.09 41.2759C123.326 41.5059 123.578 41.6759 123.849 41.7959C124.116 41.9159 124.428 41.9759 124.785 41.9759Z" fill="white"/>
<path d="M130.531 41.9759L130.551 42.1909H125.298V41.9759H125.595C125.968 41.9759 126.285 41.8659 126.546 41.6409C126.813 41.4109 126.949 41.1459 126.964 40.8309V30.8209C126.949 30.4959 126.813 30.2209 126.546 30.0009C126.285 29.7859 125.962 29.6759 125.575 29.6759H125.298V29.4609H130.551L130.531 29.6759H130.274C129.887 29.6759 129.565 29.7859 129.303 30.0009C129.037 30.2209 128.901 30.4959 128.886 30.8209V40.8309C128.901 41.1459 129.037 41.4109 129.303 41.6409C129.565 41.8659 129.887 41.9759 130.274 41.9759H130.531Z" fill="white"/>
<path d="M142.717 38.8609L141.671 42.1909H132.534V41.9759H132.836C133.178 41.9759 133.454 41.8659 133.676 41.6409C133.897 41.4109 134.013 41.1459 134.028 40.8309V30.8209C134.013 30.4959 133.892 30.2209 133.656 30.0009C133.419 29.7859 133.132 29.6759 132.79 29.6759H132.534V29.4609H137.465V29.6759H137.208C136.871 29.6759 136.579 29.7859 136.337 30.0009C136.091 30.2209 135.97 30.4959 135.97 30.8209V41.4709H138.984C139.653 41.4709 140.212 41.3609 140.659 41.1409C141.107 40.9209 141.48 40.6159 141.776 40.2159C142.078 39.8209 142.32 39.3709 142.506 38.8609H142.717Z" fill="white"/>
<path d="M153.842 38.8609L152.796 42.1909H143.658V41.9759H143.955C144.297 41.9759 144.579 41.8659 144.801 41.6409C145.022 41.4109 145.138 41.1459 145.153 40.8309V30.8209C145.138 30.4959 145.012 30.2209 144.775 30.0009C144.544 29.7859 144.257 29.6759 143.915 29.6759H143.658V29.4609H148.589V29.6759H148.333C147.991 29.6759 147.699 29.7859 147.457 30.0009C147.216 30.2209 147.095 30.4959 147.095 30.8209V41.4709H150.104C150.773 41.4709 151.331 41.3609 151.779 41.1409C152.227 40.9209 152.599 40.6159 152.901 40.2159C153.198 39.8209 153.44 39.3709 153.626 38.8609H153.842Z" fill="white"/>
</svg>
