<svg width="39" height="38" viewBox="0 0 39 38" fill="none" xmlns="http://www.w3.org/2000/svg">
<path opacity="0.1" fill-rule="evenodd" clip-rule="evenodd" d="M0.922852 18.5769C0.922852 8.31717 9.24002 0 19.4998 0C29.7595 0 38.0767 8.31717 38.0767 18.5769C38.0767 28.8367 29.7595 37.1538 19.4998 37.1538C9.24002 37.1538 0.922852 28.8367 0.922852 18.5769Z" fill="#EEEEEE"/>
<path d="M20.3474 28.6406V19.4756H23.5568L24.0339 15.8872H20.3474V13.6015C20.3474 12.566 20.6469 11.8571 22.1895 11.8571H24.1442V8.65783C23.1931 8.55964 22.2371 8.51223 21.2806 8.51581C18.4438 8.51581 16.4961 10.1842 16.4961 13.2471V15.8805H13.3076V19.4689H16.5031V28.6406H20.3474Z" fill="#EEEEEE"/>
</svg>
