<svg width="38" height="38" viewBox="0 0 38 38" fill="none" xmlns="http://www.w3.org/2000/svg">
<path opacity="0.1" fill-rule="evenodd" clip-rule="evenodd" d="M0 18.5769C0 8.31717 8.31717 0 18.5769 0C28.8367 0 37.1538 8.31717 37.1538 18.5769C37.1538 28.8367 28.8367 37.1538 18.5769 37.1538C8.31717 37.1538 0 28.8367 0 18.5769Z" fill="#EEEEEE"/>
<path fill-rule="evenodd" clip-rule="evenodd" d="M18.5776 8.66797C15.8868 8.66797 15.5491 8.67973 14.4923 8.72783C13.4375 8.77613 12.7175 8.94312 12.0875 9.18813C11.4359 9.44119 10.8831 9.77971 10.3324 10.3306C9.7813 10.8813 9.44279 11.4341 9.1889 12.0855C8.94327 12.7157 8.77607 13.4359 8.7286 14.4902C8.68133 15.5471 8.66895 15.885 8.66895 18.5758C8.66895 21.2666 8.68092 21.6032 8.7288 22.66C8.77731 23.7148 8.9443 24.4348 9.1891 25.0648C9.44237 25.7164 9.78089 26.2692 10.3318 26.8199C10.8823 27.371 11.4351 27.7103 12.0863 27.9634C12.7167 28.2084 13.4369 28.3754 14.4914 28.4237C15.5483 28.4718 15.8857 28.4836 18.5763 28.4836C21.2673 28.4836 21.604 28.4718 22.6608 28.4237C23.7156 28.3754 24.4364 28.2084 25.0668 27.9634C25.7182 27.7103 26.2701 27.371 26.8206 26.8199C27.3718 26.2692 27.7103 25.7164 27.9642 25.065C28.2077 24.4348 28.3749 23.7146 28.4245 22.6603C28.4719 21.6034 28.4843 21.2666 28.4843 18.5758C28.4843 15.885 28.4719 15.5473 28.4245 14.4904C28.3749 13.4357 28.2077 12.7157 27.9642 12.0857C27.7103 11.4341 27.3718 10.8813 26.8206 10.3306C26.2695 9.7795 25.7184 9.44098 25.0661 9.18813C24.4345 8.94312 23.7141 8.77613 22.6594 8.72783C21.6025 8.67973 21.2661 8.66797 18.5745 8.66797H18.5776ZM17.6887 10.4534C17.9525 10.453 18.2469 10.4534 18.5775 10.4534C21.2229 10.4534 21.5364 10.4629 22.5811 10.5104C23.5471 10.5546 24.0714 10.716 24.4206 10.8516C24.883 11.0312 25.2127 11.2458 25.5592 11.5926C25.906 11.9394 26.1207 12.2696 26.3006 12.732C26.4363 13.0808 26.5979 13.6051 26.6418 14.5711C26.6893 15.6156 26.6996 15.9293 26.6996 18.5735C26.6996 21.2176 26.6893 21.5314 26.6418 22.5758C26.5977 23.5418 26.4363 24.0661 26.3006 24.4149C26.1211 24.8773 25.906 25.2065 25.5592 25.5531C25.2124 25.8999 24.8832 26.1145 24.4206 26.2941C24.0718 26.4303 23.5471 26.5914 22.5811 26.6355C21.5367 26.683 21.2229 26.6933 18.5775 26.6933C15.9319 26.6933 15.6184 26.683 14.5739 26.6355C13.6079 26.5909 13.0837 26.4295 12.7342 26.2939C12.2718 26.1143 11.9416 25.8997 11.5948 25.5529C11.248 25.2061 11.0334 24.8767 10.8534 24.4141C10.7178 24.0653 10.5561 23.541 10.5122 22.575C10.4647 21.5305 10.4552 21.2168 10.4552 18.571C10.4552 15.9252 10.4647 15.6131 10.5122 14.5687C10.5563 13.6026 10.7178 13.0784 10.8534 12.7291C11.0329 12.2667 11.248 11.9365 11.5948 11.5897C11.9416 11.2429 12.2718 11.0283 12.7342 10.8483C13.0834 10.712 13.6079 10.551 14.5739 10.5067C15.4879 10.4654 15.8421 10.453 17.6887 10.4509V10.4534ZM23.8662 12.0985C23.2098 12.0985 22.6773 12.6304 22.6773 13.287C22.6773 13.9434 23.2098 14.476 23.8662 14.476C24.5226 14.476 25.0552 13.9434 25.0552 13.287C25.0552 12.6307 24.5226 12.0985 23.8662 12.0985ZM18.5776 13.4877C15.7677 13.4877 13.4895 15.7658 13.4895 18.5757C13.4895 21.3856 15.7677 23.6628 18.5776 23.6628C21.3875 23.6628 23.6648 21.3856 23.6648 18.5757C23.6648 15.7658 21.3875 13.4877 18.5776 13.4877ZM18.5775 15.2731C20.4014 15.2731 21.8801 16.7517 21.8801 18.5757C21.8801 20.3996 20.4014 21.8783 18.5775 21.8783C16.7535 21.8783 15.2749 20.3996 15.2749 18.5757C15.2749 16.7517 16.7535 15.2731 18.5775 15.2731Z" fill="#EEEEEE"/>
</svg>
